<?xml version="1.0" ?><svg id="Layer_1" style="enable-background:new 0 0 100 100;" version="1.1" viewBox="0 0 100 100" xml:space="preserve" xmlns="http://www.w3.org/2000/svg" xmlns:xlink="http://www.w3.org/1999/xlink"><g><path d="M50,50.4c-2.5,0-4.9-0.5-7.1-1.6c-5.9-2.7-9.7-8.7-9.7-15.2c0-9.2,7.5-16.7,16.8-16.7s16.8,7.5,16.8,16.7   c0,6.5-3.8,12.4-9.7,15.2C54.9,49.9,52.5,50.4,50,50.4z M50,18.9c-8.1,0-14.8,6.6-14.8,14.7c0,5.7,3.3,11,8.5,13.4   c3.9,1.9,8.6,1.9,12.5,0c5.2-2.4,8.5-7.7,8.5-13.4C64.8,25.5,58.1,18.9,50,18.9z"/></g><g><path d="M51.5,83.1c-0.2,0-0.5,0-0.7,0h-1.4c-6.9,0-12.8,0-17.3-1.6c-5.1-1.8-7.6-5.7-7.6-11.7c0-10.6,7.7-20,18.7-22.9l0.4-0.1   l0.3,0.2c3.9,1.8,8.6,1.8,12.5,0l0.3-0.2l0.4,0.1c11,2.9,18.7,12.3,18.7,22.9c0,6.1-2.5,9.9-7.6,11.7C63.7,83.1,58,83.1,51.5,83.1z    M50,81.1h0.7c6.4,0,12.4,0,16.6-1.5c4.4-1.6,6.3-4.6,6.3-9.8c0-9.6-6.9-18.1-16.8-20.8c-4.3,1.9-9.3,1.9-13.6,0   c-9.9,2.7-16.8,11.3-16.8,20.8c0,5.2,1.9,8.3,6.3,9.8c4.2,1.5,10.2,1.5,16.6,1.5H50z"/></g></svg>