<?xml version="1.0" encoding="utf-8"?>
<!-- Generator: Adobe Illustrator 27.0.0, SVG Export Plug-In . SVG Version: 6.00 Build 0)  -->
<svg version="1.1" id="Layer_1" xmlns="http://www.w3.org/2000/svg" xmlns:xlink="http://www.w3.org/1999/xlink" x="0px" y="0px"
	 viewBox="0 0 100 100" style="enable-background:new 0 0 100 100;" xml:space="preserve">
<style type="text/css">
	.st0{fill:#FFFFFF;}
</style>
<g>
	<path class="st0" d="M50,50.4c-2.5,0-4.9-0.5-7.1-1.6c-5.9-2.7-9.7-8.7-9.7-15.2c0-9.2,7.5-16.7,16.8-16.7s16.8,7.5,16.8,16.7
		c0,6.5-3.8,12.4-9.7,15.2C54.9,49.9,52.5,50.4,50,50.4z M50,18.9c-8.1,0-14.8,6.6-14.8,14.7c0,5.7,3.3,11,8.5,13.4
		c3.9,1.9,8.6,1.9,12.5,0c5.2-2.4,8.5-7.7,8.5-13.4C64.8,25.5,58.1,18.9,50,18.9z"/>
</g>
<g>
	<path class="st0" d="M51.5,83.1c-0.2,0-0.5,0-0.7,0h-1.4c-6.9,0-12.8,0-17.3-1.6c-5.1-1.8-7.6-5.7-7.6-11.7
		c0-10.6,7.7-20,18.7-22.9l0.4-0.1l0.3,0.2c3.9,1.8,8.6,1.8,12.5,0l0.3-0.2l0.4,0.1c11,2.9,18.7,12.3,18.7,22.9
		c0,6.1-2.5,9.9-7.6,11.7C63.7,83.1,58,83.1,51.5,83.1z M50,81.1h0.7c6.4,0,12.4,0,16.6-1.5c4.4-1.6,6.3-4.6,6.3-9.8
		c0-9.6-6.9-18.1-16.8-20.8c-4.3,1.9-9.3,1.9-13.6,0c-9.9,2.7-16.8,11.3-16.8,20.8c0,5.2,1.9,8.3,6.3,9.8c4.2,1.5,10.2,1.5,16.6,1.5
		H50z"/>
</g>
<g>
	<path class="st0" d="M50,48.4c-2.2,0-4.3-0.4-6.3-1.4c-5.2-2.4-8.6-7.7-8.6-13.4c0-8.1,6.6-14.7,14.8-14.7s14.8,6.6,14.8,14.7
		c0,5.7-3.4,10.9-8.6,13.4C54.3,48,52.2,48.4,50,48.4z M50,20.7c-7.1,0-13,5.8-13,13c0,5,2.9,9.7,7.5,11.8c3.4,1.7,7.6,1.7,11,0
		c4.6-2.1,7.5-6.8,7.5-11.8C63,26.5,57.1,20.7,50,20.7z"/>
</g>
<g>
	<path class="st0" d="M51.4,84.3c-0.2,0-0.5,0-0.7,0h-1.5c-7.3,0-13.6,0-18.3-1.7c-5.4-1.9-8-6-8-12.4C22.8,59,31,49.1,42.6,46
		l0.4-0.1l0.3,0.2c4.1,1.9,9.1,1.9,13.2,0l0.3-0.2l0.4,0.1c11.8,3.1,20,13,20,24.3c0,6.5-2.6,10.5-8,12.4
		C64.4,84.3,58.3,84.3,51.4,84.3z M49.9,82.2h0.7c6.8,0,13.1,0,17.6-1.6c4.7-1.7,6.7-4.9,6.7-10.4c0-10.2-7.3-19.2-17.8-22
		c-4.6,2-9.8,2-14.4,0c-10.5,2.9-17.8,12-17.8,22c0,5.5,2,8.8,6.7,10.4c4.4,1.6,10.8,1.6,17.6,1.6H49.9z"/>
</g>
</svg>
