<?xml version="1.0" encoding="utf-8"?>
<!-- Generator: Adobe Illustrator 27.0.0, SVG Export Plug-In . SVG Version: 6.00 Build 0)  -->
<svg version="1.1" id="Layer_1" xmlns="http://www.w3.org/2000/svg" xmlns:xlink="http://www.w3.org/1999/xlink" x="0px" y="0px"
	 viewBox="0 0 48 48" style="enable-background:new 0 0 48 48;" xml:space="preserve">
<style type="text/css">
	.st0{fill-rule:evenodd;clip-rule:evenodd;fill:#FFFFFF;}
</style>
<path class="st0" d="M33.5,40.9h-19c-1.6,0-2.9-1.3-2.9-2.9V10.1c0-1.6,1.3-2.9,2.9-2.9h13.9l0,0l0,0l0,0c0.2,0,0.4,0.1,0.6,0.3
	l7.2,7.2c0.2,0.1,0.3,0.3,0.3,0.6l0,0l0,0l0,0V38C36.5,39.6,35.2,40.9,33.5,40.9z M29.1,9.6v4.9H34L29.1,9.6z M35,15.9h-6.6
	c-0.4,0-0.7-0.3-0.7-0.7V8.6H14.5c-0.8,0-1.5,0.7-1.5,1.5V38c0,0.8,0.7,1.5,1.5,1.5h19.1c0.8,0,1.5-0.7,1.5-1.5L35,15.9L35,15.9z
	 M30.6,35H17.4c-0.4,0-0.7-0.3-0.7-0.7s0.3-0.7,0.7-0.7h13.2c0.4,0,0.7,0.3,0.7,0.7S31,35,30.6,35z M30.6,29.1H17.4
	c-0.4,0-0.7-0.3-0.7-0.7c0-0.4,0.3-0.7,0.7-0.7h13.2c0.4,0,0.7,0.3,0.7,0.7C31.3,28.8,31,29.1,30.6,29.1z M30.6,23.3H17.4
	c-0.4,0-0.7-0.3-0.7-0.7c0-0.4,0.3-0.7,0.7-0.7h13.2c0.4,0,0.7,0.3,0.7,0.7C31.3,22.9,31,23.3,30.6,23.3z"/>
</svg>
